<?xml version="1.0" encoding="utf-8"?>
<svg xmlns:xlink="http://www.w3.org/1999/xlink" version="1.1" xml:space="preserve" x="0" y="0" width="1366" height="500" viewBox="0 0 1366 500" style="overflow:hidden;text-rendering:optimizeLegibility" xmlns="http://www.w3.org/2000/svg">
	<!--Title: Map Generated Using Maperitive (http://maperitive.net)-->
	<!--Map Generator: Maperitive v2.3.29 by Igor Brejc
Time: 12/05/2013 19:02:09
-->

<!--Dies ist lediglich eine Arbeitsversion mit sichtbaren Mängeln. Eine Komplett-SVG-Version wird nachgeschoben.
	Performance dieser Version ist allerdings schlecht unterbietbar hinsichtlich Darstellungsschnelligkeit.
-->

	<defs>
		<rect x="0" y="0" width="1366" height="500" id="MapFrame" />
		<clipPath clipPathUnits="userSpaceOnUse" id="MapClipRectangle">
			<use xlink:href="#MapFrame" />
		</clipPath>
		<image id="symbol_tile_1" width="188" height="188" xlink:href="5480.png" />
		<image id="symbol_tile_2" width="188" height="188" xlink:href="5480.1.png" />
		<image id="symbol_tile_3" width="188" height="188" xlink:href="5480.2.png" />
		<image id="symbol_tile_4" width="188" height="188" xlink:href="5480.3.png" />
		<image id="symbol_tile_5" width="188" height="188" xlink:href="5480.4.png" />
		<image id="symbol_tile_6" width="188" height="188" xlink:href="5480.5.png" />
		<image id="symbol_tile_7" width="188" height="188" xlink:href="5480.6.png" />
		<image id="symbol_tile_8" width="188" height="188" xlink:href="5480.7.png" />
		<image id="symbol_tile_9" width="188" height="188" xlink:href="5481.png" />
		<image id="symbol_tile_10" width="188" height="188" xlink:href="5481.1.png" />
		<image id="symbol_tile_11" width="188" height="188" xlink:href="5481.2.png" />
		<image id="symbol_tile_12" width="188" height="188" xlink:href="5481.3.png" />
		<image id="symbol_tile_13" width="188" height="188" xlink:href="5481.4.png" />
		<image id="symbol_tile_14" width="188" height="188" xlink:href="5481.5.png" />
		<image id="symbol_tile_15" width="188" height="188" xlink:href="5481.6.png" />
		<image id="symbol_tile_16" width="188" height="188" xlink:href="5481.7.png" />
		<image id="symbol_tile_17" width="188" height="188" xlink:href="5482.png" />
		<image id="symbol_tile_18" width="188" height="188" xlink:href="5482.1.png" />
		<image id="symbol_tile_19" width="188" height="188" xlink:href="5482.2.png" />
		<image id="symbol_tile_20" width="188" height="188" xlink:href="5482.3.png" />
		<image id="symbol_tile_21" width="188" height="188" xlink:href="5482.4.png" />
		<image id="symbol_tile_22" width="188" height="188" xlink:href="5482.5.png" />
		<image id="symbol_tile_23" width="188" height="188" xlink:href="5482.6.png" />
		<image id="symbol_tile_24" width="188" height="188" xlink:href="5482.7.png" />
		<circle id="mark_1" r="8" fill="red"/>
	</defs>
	<clipPath clipPathUnits="userSpaceOnUse" id="MapClipRectangle">
		<use xlink:href="#MapFrame" />
	</clipPath>
	<g id="Map" clip-path="url(#MapClipRectangle)">
		<g id="Map_background" style="fill:#F1EEE8;stroke:#000000">
			<g id="map_background">
				<rect x="0" y="0" width="1366" height="500" id="Map_Background_Fill" style="stroke:none" />
			</g>
		</g>
		<g id="Bitmap__in_background" style="stroke:#000000">
			<g id="tiles">
				<use x="-59" y="-45" width="188" height="188" xlink:href="#symbol_tile_1" />
				<use x="129" y="-45" width="188" height="188" xlink:href="#symbol_tile_2" />
				<use x="317" y="-45" width="188" height="188" xlink:href="#symbol_tile_3" />
				<use x="505" y="-45" width="188" height="188" xlink:href="#symbol_tile_4" />
				<use x="693" y="-45" width="188" height="188" xlink:href="#symbol_tile_5" />
				<use x="881" y="-45" width="188" height="188" xlink:href="#symbol_tile_6" />
				<use x="1069" y="-45" width="188" height="188" xlink:href="#symbol_tile_7" />
				<use x="1257" y="-45" width="188" height="188" xlink:href="#symbol_tile_8" />
				<use x="-59" y="143" width="188" height="188" xlink:href="#symbol_tile_9" />
				<use x="129" y="143" width="188" height="188" xlink:href="#symbol_tile_10" />
				<use x="317" y="143" width="188" height="188" xlink:href="#symbol_tile_11" />
				<use x="505" y="143" width="188" height="188" xlink:href="#symbol_tile_12" />
				<use x="693" y="143" width="188" height="188" xlink:href="#symbol_tile_13" />
				<use x="881" y="143" width="188" height="188" xlink:href="#symbol_tile_14" />
				<use x="1069" y="143" width="188" height="188" xlink:href="#symbol_tile_15" />
				<use x="1257" y="143" width="188" height="188" xlink:href="#symbol_tile_16" />
				<use x="-59" y="331" width="188" height="188" xlink:href="#symbol_tile_17" />
				<use x="129" y="331" width="188" height="188" xlink:href="#symbol_tile_18" />
				<use x="317" y="331" width="188" height="188" xlink:href="#symbol_tile_19" />
				<use x="505" y="331" width="188" height="188" xlink:href="#symbol_tile_20" />
				<use x="693" y="331" width="188" height="188" xlink:href="#symbol_tile_21" />
				<use x="881" y="331" width="188" height="188" xlink:href="#symbol_tile_22" />
				<use x="1069" y="331" width="188" height="188" xlink:href="#symbol_tile_23" />
				<use x="1257" y="331" width="188" height="188" xlink:href="#symbol_tile_24" />
			</g>
		</g>
		<g id="Polygons" style="fill:#B5D0D0;stroke-linejoin:round;stroke:#000000">
			<g id="water__fill">
				<path style="fill-rule:evenodd;stroke:none" d="M776.83 452.11 l2.07 1.19 1.19 0.21 0.3 -0.48 -0.46 -1.19 1.38 -1.18 1.09 -0.15 0.71 -1.12 -0.13 -1.34 1.08 -1.23 0.32 -1.64 -0.55 -0.18 -0.15 -1.79 -0.28 -0.42 0.49 -1.03 1.58 0.18 2.2 -3.37 0.07 -0.76 -0.07 -0.46 -0.15 -0.42 -0.68 -0.33 -1.01 -0.66 0.6 -0.87 -0.8 0.16 -2.66 1.06 -1.81 -0.71 -1.54 0.14 -2.29 1.17 -0.87 -0.23 -0.75 -0.26 -0.42 -0.81 -1.01 -0.74 -1.51 -0.4 -1.14 0.21 -1.08 0.52 1.46 3.53 -0.09 1.4 -1.35 1.35 -1.56 0.34 -1.93 -0.78 -1.31 -1.4 -0.74 0.02 -0.92 0.94 -1.95 -0.5 -1.35 -1.76 -3.22 -1.71 -2.87 -1.4 -2.11 -2.66 -2.82 -2.57 -1.9 -1.03 -2.57 -0.9 -0.8 -0.53 -3.12 -0.9 -2.06 1.96 -1.2 -0.42 -0.14 -0.32 -2.46 -1.35 -0.57 0.83 -0.18 1.64 1.67 1.52 4.41 2.32 2.16 0.69 1.58 1.13 0.53 1.22 7.62 4.41 1.19 0.05 1.84 -0.78 1.15 -0.12 1.79 0.85 2.16 1.84 3.88 0.92 1.56 1.56 1.45 0.78 0.41 1.47 1.24 0.62 0.55 1.77 0.09 1.47 4.34 2.5 1.61 -1.1 0.85 0.05 Z M749.01 432.09 h0.81 l0.59 0.44 0.15 0.66 -0.37 0.51 -1.03 -0.15 -0.44 -0.37 0.29 -1.1 Z M781.68 442.44 l0.73 -0.12 0.18 0.64 -0.44 0.39 -0.55 -0.25 0.07 -0.67 Z M771.55 448.68 l0.95 -0.51 0.95 0.29 0.51 1.03 -0.66 0.15 0.29 0.51 0.88 0.44 -1.03 0.59 -1.17 -0.81 -1.1 -0.22 -0.37 -0.29 0.74 -1.18 Z M783.83 436.84 l0.62 -0.3 0.5 0.34 0.05 0.55 -0.5 0.3 -0.67 -0.16 v-0.73 Z" />
				<path style="fill-rule:evenodd;stroke:none" d="M673.46 382.41 l-0.21 0.3 0.08 0 0.83 0.49 0.37 0.75 -0.21 0.78 -0.54 0.46 -0.61 0.09 -1.07 -0.68 -0.26 0.44 1.3 0.79 h0.8 l0.71 -0.44 0.16 -0.75 0.37 -0.71 -0.2 -0.73 -1.53 -0.79 Z" />
				<path style="fill-rule:evenodd;stroke:none" d="M629.74 160.84 l0.22 -0.07 2.25 -0.76 1.76 -0.68 0.48 -0.19 3.69 -1.49 0.45 -0.18 3.84 -1.81 0.35 -0.16 0.44 -0.21 2.98 -1.41 0.76 -0.43 0.37 -0.21 0.24 -0.13 0.31 -0.15 1.22 -12.56 -14.39 -2.44 -5.82 3.63 -3.56 0.71 -3.96 0.57 -15.22 4.11 -22.06 1.37 -0.01 0.01 -14.06 -4.32 -9.09 -5.8 -5.99 -3.23 -1.7 7.69 -11.31 4.63 5.58 3.75 2.94 1.83 3.74 2.01 3.04 1.5 2.54 1.18 2.46 0.99 2.47 0.95 2.59 0.84 2.37 0.69 2.26 0.62 4.8 0.9 3.03 0.46 4.54 0.5 2.76 0.28 4.54 0.28 7.7 0.27 3.83 0.04 3.29 -0.05 3.07 -0.09 4.93 -0.43 2.31 -0.28 2.4 -0.3 2.05 -0.36 1.76 -0.31 2.78 -0.6 2.11 -0.61 1.95 -0.56 Z M546.55 148.45 l5.45 3.44 0.12 0.22 -0.01 0.27 -0.09 0.18 -0.21 0.11 -0.25 -0.03 -0.39 -0.24 -3.01 -1.84 -2.15 -1.36 -0.32 -0.28 -0.29 -0.26 0.37 -0.61 0.78 0.39 Z" />
				<path style="fill-rule:evenodd;stroke:none" d="M665.66 373.47 l-0.51 1.81 0.13 0.69 0.61 0.64 1.33 0.94 1.23 0.15 1.07 -1.95 0.84 0.38 0.76 -1.52 -1.26 -1.89 -2.66 -0.57 -1.54 1.33 Z M667.32 372.86 l1.73 0.46 0.9 0.76 -0.69 1.14 -1.23 0.53 -1.43 -0.28 -0.13 -1.67 0.85 -0.95 Z" />
				<path style="fill-rule:evenodd;stroke:none" d="M515.49 124.45 l-0.08 0.06 -0.7 0.48 -1.2 0.82 0.83 1.22 2.51 -1.72 -0.83 -1.22 -0.53 0.36 Z M513.88 125.68 l0.89 -0.61 0.69 -0.48 0.33 -0.22 0.09 0.14 0.2 0.28 0.41 0.59 -1.01 0.7 -0.89 0.62 -0.69 -1.01 Z" />
				<path style="stroke:none" d="M470.93 -20.61 l-0.79 -0.12 -0.32 0.11 -0.55 0.4 -0.31 0.91 -2.87 -8.94 3.5 0.95 5.75 5.34 5.12 5.25 1.32 0.42 1.23 -0.01 0.95 -0.26 0.17 -0.15 4.26 5.13 5.07 6.17 2.39 2.93 0.73 0.94 0.85 1.49 0.44 0.97 0.45 1.41 1.06 5.19 0.35 2.08 0.14 1.93 -1.08 0.93 -1.53 0.94 -1.77 0.06 -0.71 -0.62 -0.6 -0.84 -10.6 -16.8 -5.77 -7.8 -6.03 -7.38 -0.84 -0.64 Z" />
				<path style="stroke:none" d="M1139.48 88.58 l6.84 6.87 21.1 21.21 -4.07 2.15 -5.03 -4.3 -0.98 -0.36 -1.08 0.1 -2.62 0.01 -1.59 -0.87 -12.62 -20.55 -0.61 -0.81 -0.87 -0.62 -0.64 0.08 2.18 -2.91 Z" />
				<path style="stroke:none" d="M841 39.54 l-3.39 1.19 -1.99 0.34 -5.13 1.12 -1.84 0.42 -2.91 1.51 -11.63 2.75 -6.32 0.07 6.65 -9.48 -16.35 -3.21 2.03 -0.91 2.8 -0.87 1.79 -0.16 6.21 -0.9 1.08 -1.01 2.03 -1.02 3.38 -0.7 3.72 -0.14 6.1 -1.4 1.73 -1.24 2.18 -0.67 8.53 -1.49 12.91 -2.1 19.06 -2.3 20.11 -2.39 36.16 -2.36 33.19 3.15 27.51 4.82 5.2 8.14 -8.2 9.01 -7.59 -2.72 -9.23 -0.59 -3.31 -0.82 -21.05 -4.66 -9.19 -0.18 -9.35 -1.5 -9.53 -0.22 -12.22 1.64 -4.15 -0.48 -8.92 1.34 -27.92 2.22 -9.59 1.67 -3.63 1.63 -2.84 2.19 -0.82 -0.66 -2.03 -0.43 -3.24 1.39 Z" />
				<path style="stroke:none" d="M498.86 46.9 l6.81 14.6 4.03 9.42 10.99 25.27 20.57 27.24 13.65 11.56 0.02 0.02 -1.7 7.69 -11.31 4.63 -0.29 -0.23 -2.71 -2.14 -1.07 -1.52 -1.48 -1.73 -1.24 -1.19 -2.33 -1.61 -2.79 -2.26 -0.32 -0.93 -0.42 -0.53 -3.81 -4.55 -4.35 -5.36 -4.22 -5.53 -3.57 -5.15 -2.83 -4.11 -3.35 -5.47 -1.94 -3.39 -1.31 -2.4 -2.85 -5.16 -1.63 -3.33 -3.1 -7.11 -2.95 -7.11 -2.51 -6.1 -0.8 -1.95 -3.48 -8.58 -5.22 -14.06 -3.87 -11.36 -1.78 -4.68 -3.1 -7.67 -0.4 -1.36 -3.5 -5.97 -1.8 -3.77 -3.17 -4.43 -1.08 -3.97 -5.88 -9.57 5.74 -10.18 3.59 -11.11 2.87 8.94 0.21 1.1 12.15 15.88 4.72 8.1 0.92 1.09 2.05 3.81 3.09 4.34 1.09 2.21 3.08 5.9 2.55 4.63 0.12 1.16 0.33 0.74 1.32 1.46 -4.92 -0.27 -1.25 -0.61 -1.08 -3.82 -1.42 -3.76 -1.65 -1.63 -1.88 -1.29 -1.78 -2.8 -0.21 0.14 1.96 3.91 1.47 3.51 2.57 7.01 6.45 15.4 Z" />
				<path style="stroke:none" d="M770.42 380.81 l0.38 -0.25 6.87 4.21 0.28 0.41 0.4 0.03 6.77 4.3 -0.03 0.72 0.47 0.6 -0.22 0.31 0.87 0.56 0.61 0.54 0.47 0.73 0.21 0.88 -0.1 0.94 -0.4 0.76 -0.68 0.62 -0.77 0.37 -0.86 0.09 -0.98 -0.3 -1.11 -0.67 -0.25 0.34 -0.77 -0.14 -0.48 0.33 -6.95 -4.37 -0.16 -0.3 -0.4 -0.06 -6.97 -4.41 0.2 -0.41 -0.09 -0.45 3.35 -5.32 0.36 -0.09 Z" />
				<path style="stroke:none" d="M833.58 378.97 l-1.24 1.7 -0.98 0.99 -1.14 0.67 -1.02 0.14 -2.34 -0.47 -0.95 0.17 -0.5 0.63 -0.82 1.55 -1.35 0.57 -0.72 -0.39 -0.66 -1.34 1.12 -2.17 -0.39 -1.11 0.72 -0.86 0.55 -0.06 0.81 -0.99 2.09 -1.05 0.84 -0.72 0.51 -0.94 0.18 -1.85 0.41 -1.21 0.76 -1.06 1.36 -1.2 1.21 -1.6 1.44 -1.72 1.28 -1.81 1.59 -2.03 0.68 0.39 -1.23 1.87 -0.61 1.03 0.01 0.68 1.07 1.74 0.09 1.38 -0.1 0.96 -0.13 0.7 -0.1 0.83 -0.19 0.66 -0.12 0.57 -0.42 1.78 -0.74 1.88 -0.98 1.69 Z" />
				<path style="stroke:none" d="M511.12 170.03 l0.09 -0.04 0.05 -0.08 0.02 -0.09 -0.01 -0.08 0.15 -0.04 0.22 -0.03 0.18 0 0.01 -0.05 0.02 -0.04 0.05 -0.05 0.05 -0.02 0 -0.07 0.27 0 0.25 0.03 0.23 0.04 0.26 0.06 0.25 0.09 0.24 0.12 -0.03 0.06 0.04 0.04 0.02 0.07 -0.01 0.08 0.12 0.06 0.18 0.11 0.17 0.13 -0.04 0.07 -0.02 0.07 0.01 0.11 0.05 0.11 -0.3 0.19 -0.05 -0.06 -0.38 0.25 0.04 0.06 -0.29 0.19 -0.07 -0.07 -0.19 -0.13 -0.05 0.05 -0.16 0.02 -0.1 -0.01 -0.12 -0.03 -0.11 -0.05 -0.1 -0.06 -0.03 -0.07 -0.21 0.03 -0.09 0.06 -0.19 -0.31 0.05 -0.04 -0.23 -0.36 -0.05 0.03 -0.21 -0.33 Z" />
				<path style="stroke:none" d="M697.84 274.83 l7.1 4.48 8.07 4.99 -0.5 0.75 -7.99 -5.06 -7.1 -4.5 0.43 -0.67 Z" />
				<path style="stroke:none" d="M696.38 276.86 l-1.07 1.69 -0.85 0.33 -1.34 1.81 -4.01 2.06 0.75 1.16 -0.84 0.71 0.68 0.83 -2.47 1.77 -1.36 0.99 -1 0.66 -0.07 0.78 2.9 1.11 -0.31 1.32 1.25 1.08 1.27 0.54 0.12 0.82 0.57 0.5 1.23 0.36 0.72 0.21 1.43 0.05 1.9 1.24 0.9 -1.14 -4.97 -3 -3.6 -2.26 1.08 -1.72 2.88 -4.53 1.34 -2.22 0.5 0.24 3.14 -5.01 -0.75 -0.37 Z" />
				<path style="stroke:none" d="M816.99 394.18 l-1.15 2.21 -6.51 10.61 -0.37 0.55 -0.44 0.72 -0.65 0.99 -2.12 3.18 -0.42 0.46 -0.24 0.53 -0.38 0.62 -0.68 0.44 -0.1 0.93 0.02 0.45 -0.19 0.45 -0.62 0.22 -0.46 0.4 -0.04 0.48 0.07 0.41 -0.15 0.29 -0.57 1.63 -0.71 0.85 -1.06 1.38 -1.06 0.96 -0.55 0.63 -2.16 3.58 -0.34 0.73 0.03 0.44 -0.39 0.8 -0.45 0.67 -0.66 0.82 -1.02 1.1 -0.56 0.82 -0.17 0.62 -0.55 0.96 -0.86 0.53 -2.75 1.85 -0.98 0.21 -0.21 0.24 -0.68 -0.33 1.92 -0.62 2.63 -1.74 1.07 -1.12 0.22 -0.72 -0.25 -0.64 0.05 -0.74 0.56 -0.62 0.46 -1.1 1.37 -0.85 0.68 -1.16 0.68 -0.36 2.04 -3.53 0.18 -0.59 2.1 -3.07 1.72 -4.37 0.66 -1 1.51 -1.38 0.23 -0.07 0.59 -0.75 0.41 -0.96 1.63 -2.39 1.01 -1.66 0.32 -0.57 0.09 -0.55 0.26 -0.31 0.3 -0.17 6.28 -10.03 0.96 -1.66 0.22 0.15 0.24 0.16 Z" />
				<path style="stroke:none" d="M343.6 11.67 l-0.24 -0.29 -0.17 -0.4 -0.03 -1.54 0.12 -0.27 0.19 -0.24 0.35 -0.21 0.29 -0.05 1.15 0.18 0.25 -0.01 6.21 1.34 0.21 0.13 2.12 0.51 -0.06 1.22 -0.17 0.99 -2.66 5.53 -0.67 1.54 -0.22 0.07 -0.94 -0.27 -0.79 -0.48 -0.25 -0.32 -0.13 -0.35 -0.22 -4.02 -0.31 -0.33 -4.03 -2.74 Z" />
				<path style="stroke:none" d="M109.66 31.4 l-4.6 0.8 -3.55 0.63 -9.46 0.88 -1.32 0.01 -3.47 0.02 -5.72 0.04 -11.4 -2.4 -11.97 -7.34 -16.92 -12.76 -1.88 -1.42 -13.44 -13.73 -7.35 -9.62 -6.98 -9.59 -1.03 -4.55 -1.69 -0.15 -6.32 -11.02 -5.66 -12.34 -4.77 -13.29 -1.18 -6.31 -3.96 -11.78 -0.45 -2.33 -7.54 -37 -14.82 -48.88 -27.53 -69.95 -13.78 -35.42 -0.88 -1.02 -1.28 -4.01 -1.88 -4.57 -3.01 -5.76 -4.09 -7.16 -4.4 -6.98 -0.13 -0.73 -1.55 -2.37 -2.26 -2.74 -1.33 -0.92 -2.81 -3.13 -1.75 -1.54 0.18 0.03 1.24 1.02 0.05 -0.4 -0.53 -0.84 -8.27 -8.65 -6.26 -4.97 -7.31 -4.08 -0.57 -0.29 -0.99 -0.45 -1.15 -0.32 -2.67 -0.01 -2 0.25 -5.97 -5.98 -9.22 -6.3 -41.93 -19.42 -34.31 -23.06 -23.64 -18.21 -44.98 -15.78 -35.83 -12.14 -15.87 -6.3 -12.95 -7.31 -3.35 -3.52 -14.09 -7.57 -8.1 -3.08 -7.31 -4.05 -7.72 -5.79 -14.27 -8.02 -13.16 -9.26 -13.94 -3.85 -13.65 -2.22 -13.83 1.29 -13.06 2.72 -15.46 4.76 -14.64 6.57 -20.65 18.93 -21.35 27.92 -10.02 7.7 -10.36 6.76 -5.96 -3.74 -6.19 -6.57 13.73 -8.82 12.69 -11.11 10.76 -12.34 10.48 -12.35 10.49 -10.42 11.72 -8.6 16.43 -7.74 16.8 -5.02 14.63 -3.08 13.19 -1.63 7.2 0.15 4.72 -0.21 1.74 0.52 0.91 0.53 8.19 -0.12 0.81 -0.01 4.69 0.16 2.21 0.7 2.66 1.44 3.34 4.73 21.41 15.65 31.26 15.78 38.12 18.21 17.1 8.11 17 5.9 22.62 5.91 14.91 4.48 10.43 5.36 24.68 20.01 34.31 21.85 1.82 0.86 10.71 7.24 26.35 13.75 29.34 15.04 12.22 9.58 10.2 10.22 9.76 12.63 8.9 14.21 11.06 23.79 13.58 33.79 11.86 30.96 10.76 26.82 2.08 5.18 14.82 49.72 6.46 26.82 7.23 30.04 6.96 19.36 6.31 13.59 4.09 6.7 3.99 6.2 6.93 9.18 7.6 8.95 6.04 5.94 6.15 5.76 4.94 4.03 5.37 3.25 7.11 3.59 3.52 1.02 3.67 1.4 8.77 1.63 9.64 0.68 23.59 -2.13 25.12 8.91 -16.79 3.14 -17.16 2.78 Z" />
				<path style="stroke:none" d="M202.27 12.94 l11.44 1.02 7.41 0.97 3.9 -0.64 3.26 -1.64 9.23 -4 3.66 -1 3.22 0.24 4.63 2.27 88.71 5.59 -0.23 2.88 -0.31 3.96 -0.26 3.3 -10.83 -1.37 -131.15 -6.63 7.32 -4.93 Z" />
				<path style="stroke:none" d="M289.59 -146.76 l10.95 -5.37 11.69 -3.02 13.96 -1.77 1.83 -1.16 2.96 -0.37 1.39 1.43 2.24 -0.1 7.35 -0.26 1.91 1 2.53 -0.75 8.22 2.26 1.83 -0.64 0.99 0.9 3.24 0.37 1.11 0.27 2.46 0.6 0.79 0.19 0.18 0.04 0.73 0.27 10.05 3.7 -1.85 9.67 -3.99 9.12 -4.45 -2.79 -11.59 -4.97 -13.64 -3.03 -8.09 -0.31 -15.01 1.45 -13.14 2.73 -13.77 6.38 -24.76 17.11 -15.93 14.67 -3.43 5.24 -4.33 4.71 -2.68 6.05 -1.32 7.45 0.04 4.2 -0.11 3.74 0.45 5.44 1.33 4.84 -3.4 14.39 -4.53 12.79 -4.45 14.69 -7.28 11.77 -6.53 6.92 -10.92 8.56 -0.35 1.28 -7.32 4.93 -8.7 1.18 -6.02 -0.04 -14.58 2.67 0.07 1.6 0.07 0.74 -20.01 2.46 -2.18 -1 -25.12 -8.91 6.32 -0.88 8.2 -1.44 1.13 -0.38 3.25 -0.27 21.56 -5.32 12.21 -2.47 11.8 -3.43 8.35 -3.36 6.77 -4.45 8.68 -9.82 8.03 -14.53 0.87 -2.78 0.88 -2.52 1.42 -2.39 1.44 -4.51 2.15 -7.88 2.19 -8.05 5.71 -30.26 7.41 -19.38 1.42 -3.4 1.69 -0.7 9.97 -8.68 17.46 -12.92 11.25 -7.42 10.94 -6.12 Z" />
				<path style="stroke:none" d="M717.18 414.7 l0.66 -0.96 0.81 -0.09 0.58 0.43 -0.02 0.53 -0.6 0.73 -0.58 0.24 -0.6 -0.3 -0.26 -0.58 Z" />
				<path style="stroke:none" d="M696.61 382.31 l0.52 0.12 1.84 1.78 0.08 0.79 -0.7 0.23 -2.49 1.02 -0.71 -0.35 -0.91 -0.62 2.37 -2.97 Z" />
				<path style="stroke:none" d="M692 381.83 l0.62 -1.04 0.59 -0.38 h0.78 l0.59 0.47 0.53 0.89 -0.36 0.88 -0.6 0.82 -0.49 0.62 -0.19 -0.16 -0.69 -0.65 -0.98 -0.93 0.21 -0.5 Z" />
				<path style="stroke:none" d="M836.34 362.81 l-0.46 -1.31 -40.63 -25.57 1.36 -2.16 0.27 0.16 -1.02 1.51 40.27 24.92 1.1 -0.19 0.82 0.29 0.72 0.8 -0.09 1.38 -1.66 0.56 -0.68 -0.39 Z" />
				<path style="stroke:none" d="M602.63 171.31 l0.12 0.01 0.08 0.06 0.06 0.11 0.04 0.1 0.03 0.13 -0.01 0.18 -0.06 0.15 -0.06 0.07 -0.09 0.08 -0.08 0.04 -0.11 -0.01 -0.05 0.46 -0.71 -0.06 0.01 -0.11 -0.05 -0.02 -0.05 -0.04 -0.02 -0.07 0.01 -0.06 -0.06 -0.01 0.02 -0.21 0.05 -0.01 0.03 -0.05 0.08 -0.75 -0.01 -0.05 -0.05 -0.02 0.03 -0.24 0.08 0.01 0.01 -0.05 0.03 -0.06 0.05 -0.02 h0.07 l0.01 -0.06 0.66 0.08 -0.04 0.4 Z" />
				<path style="stroke:none" d="M683.71 397.6 l-0.21 -0.69 0.1 -0.59 0.31 -0.55 0.44 -0.42 0.85 -0.5 0.35 0.01 0.52 0.44 0.21 1 0.06 0.47 0.14 0.59 0.18 0.63 -0.11 0.8 -0.54 0.21 -1.05 -0.63 -1.25 -0.77 Z" />
				<path style="stroke:none" d="M592.51 329.11 l0.56 -0.96 0.37 -1.72 0.52 -1.09 0.72 -0.68 0.87 0.12 0.4 1 0.28 1.21 0.72 1.74 0.56 1.09 -0.03 1.18 v0.58 l0.36 0.79 -0.79 -0.43 -0.32 -0.01 -0.84 0.56 -0.97 0.31 -0.65 -0.19 -0.47 -1.03 -0.43 -1.07 -0.33 -0.76 -0.52 -0.66 Z" />
				<path style="stroke:none" d="M807.8 46.95 l-10.33 4.17 -5.93 2.35 -10.25 5.38 -19.72 12.22 -1.31 1.18 -0.72 1.23 -0.98 2.03 -2.41 1.44 -6.78 5.99 -3.19 2.17 -0.79 -0.09 -1.12 0.04 -1.36 0.77 -17.07 13.25 -26.77 20.34 -3.39 2.87 -3.87 2.64 -5.56 3.79 -3.2 2.2 -3.77 2.64 -4.27 2.9 -3.86 2.5 -3.1 1.98 -0.95 0.61 -0.45 0.28 -2.43 1.5 -0.4 0.25 -2.12 1.34 -0.43 0.27 -1.72 1.1 -2.82 1.67 -0.39 0.22 -3.5 1.97 -0.4 0.22 -0.84 0.47 -3.71 2.13 1.22 -12.56 -14.39 -2.44 2.87 -0.78 7.99 -3.81 6.77 -4.27 4.3 -2.29 5.2 -2.94 7.85 -4.67 6.93 -4.28 5.31 -3.37 11.18 -8.09 27.76 -20.17 34.18 -26.08 21.85 -13.59 7.31 -3.97 13.88 -5.38 16.35 3.21 -6.65 9.48 Z" />
				<path style="stroke:none" d="M988.6 22.56 l16.21 3.23 16.22 3.78 29.72 7.09 29.72 11.03 28.23 17.34 25.59 18.91 -7.7 5.38 -7.13 5.13 -13.56 -11.79 -28.18 -17.76 -27.98 -11.68 -29.23 -7.09 -34.94 -6.41 8.2 -9.01 -5.2 -8.14 Z" />
				<path style="stroke:none" d="M495.43 159.42 l-3.3 1.7 -0.28 -0.66 -0.14 -0.58 -0.11 -0.79 0.06 -0.59 0.1 -0.56 0.19 -0.47 0.25 -0.43 0.24 -0.34 0.32 -0.28 0.6 -0.57 0.44 -0.85 0.46 -1.06 0.05 -0.56 0.2 -0.45 0.35 -0.5 0.61 -0.52 1.39 -0.68 1.49 -0.59 1.51 -0.41 1.46 -0.04 1.62 -0.16 0.85 0.05 0.7 0.17 0.61 0.21 0.69 0.29 0.26 0.16 0.11 0.19 0.01 0.27 -0.08 0.69 -0.27 2.1 -0.32 1.02 -1.03 0.8 -0.92 0.59 -0.92 0.49 -0.62 0.27 -1.31 0.45 -2.07 0.14 -1.03 0.85 -1.99 0.34 -0.17 0.11 0 0.23 Z" />
				<path style="stroke:none" d="M18.48 445.53 l1.71 2.23 -3.98 1.42 -3.21 0.68 0.08 -0.76 1.54 -1.49 3.87 -2.08 Z" />
				<path style="stroke:none" d="M819.95 389.31 l-0.23 -0.18 -0.23 -0.18 2.19 -3.45 0.84 -0.98 0.72 0.39 -0.65 1.07 -1.94 2.96 -0.32 0.14 -0.38 0.23 Z" />
				<path style="stroke:none" d="M556.35 72.79 l-0.33 -0.15 -0.35 -0.05 -0.36 0.05 -0.32 0.14 -0.31 0.26 -0.19 0.29 -0.11 0.32 -0.02 0.33 0.08 0.36 0.16 0.3 0.19 0.22 0.24 0.17 0.29 0.12 0.28 0.04 0.32 -0.02 0.3 -0.1 0.27 -0.17 0.22 -0.24 0.18 -0.34 0.07 -0.35 -0.03 -0.36 -0.15 -0.37 -0.16 -0.21 -0.27 -0.22 Z" />
				<path style="stroke:none" d="M953.76 431.39 l0.18 -0.53 -0.03 -0.52 0.17 -0.24 0.23 -0.11 0.5 -0.08 0.42 -0.06 0.13 -0.32 -0.13 -0.19 -0.45 -0.08 -0.44 0.02 -0.46 -0.03 -0.15 -0.14 -0.06 -0.3 -0.19 -0.16 -0.27 0.09 -0.12 0.26 0.07 0.29 0.26 0.18 0.07 0.3 -0.15 0.27 -0.29 0.16 -0.23 0.39 0.25 0.26 0.05 0.42 0.27 0.17 0.38 -0.05 Z" />
				<path style="stroke:none" d="M657.55 114.04 l1.06 -0.67 0.66 1.03 -1.06 0.67 -0.66 -1.03 Z" />
				<path style="stroke:none" d="M511.32 160.55 l0.2 -0.28 -0.16 -0.21 -0.3 0.01 -0.28 0.11 -0.25 -0.27 -0.34 0.18 0.12 0.34 -0.16 0.18 -0.1 0.26 0.12 0.2 0.36 -0.05 0.18 0.14 0.04 0.07 0.26 -0.1 0.22 -0.13 0.22 -0.21 -0.07 -0.06 -0.05 -0.21 Z" />
				<path style="stroke:none" d="M1119.47 94.45 l7.13 -5.13 7.7 -5.38 5.19 4.64 -2.18 2.91 -0.53 0.7 v1.52 l0.24 1.19 0.84 1.39 2.4 3.06 1.85 2.64 1.5 3.15 1.82 2.21 1 2.1 2.89 4.74 2.02 2 1.32 2.78 2.23 6.55 4.48 9.01 10.25 24.94 2.78 5.43 6.19 11.05 2.17 3.83 0.44 0.91 0.34 0.43 5 8.66 2.39 4.14 0.6 0.76 10.47 18.8 5.67 9.2 0.28 0.47 9.91 18.65 7.11 17.36 18.84 44.25 0.73 1.51 -8.48 4.92 -7.64 4.4 -10.11 -24.01 -4.59 -16.2 -5.42 -11.73 -13.47 -23.28 -6.3 -12.08 1.03 -2.79 -23.98 -39.58 0.06 -1.01 -0.08 -0.69 -0.33 -0.77 0.09 -0.81 -0.08 -1.16 -0.32 -1.06 -4.54 -7.52 -12.64 -22.05 -0.82 -0.77 -1.27 -0.48 -5.51 -12.03 -1.37 -5.59 -5.47 -11.83 -3.13 -5.7 -6.44 -15.63 -2.27 -3.01 Z" />
				<path style="stroke:none" d="M170.29 41.61 l-1.15 -2.92 1.26 -0.63 2.48 -0.15 0.11 3.29 -0.96 -0.15 -1.74 0.55 Z" />
				<path style="stroke:none" d="M1012.53 -11.3 l-0.91 0.75 -0.75 0.13 -1.23 0.28 -1.54 0.6 -1.13 0.82 -0.07 1.02 -0.15 0.88 -1.02 0.51 -0.75 0.71 0.09 0.59 0.49 0.16 0.99 0.22 0.09 0.57 -0.73 1.08 -0.69 1.13 -0.47 0.91 -0.04 1.21 0 0.32 -0.84 -0.01 -1.06 -0.03 -1.28 -0.36 -0.23 -1.01 -0.09 -1.27 0.03 -1.31 0.81 -0.45 0.44 -0.48 0.14 -0.39 0.05 -1.25 -0.32 -1.27 -0.44 -0.68 -0.22 -0.92 -0.05 -1.02 0.34 -1.44 0.76 -0.61 1 -1.01 8.79 1.6 Z" />
				<path style="stroke:none" d="M1242.54 304.9 l0.41 -0.22 1.97 3.81 2.74 5.5 0.84 1.8 0.63 1.18 0.69 1.06 3.3 5.46 2.75 4.36 3.12 4.09 2.89 3.72 2.86 3.22 2.83 2.7 4.29 4.09 1.27 1.37 1.26 0.88 2.62 2.34 0.31 0.68 0.78 1.42 0.66 0.56 0.58 0.08 1.97 1.93 2.02 1.51 2.98 2.52 1.76 1.66 0.32 1.15 0.35 0.77 0.43 0.42 1.09 0.45 0.96 0.46 2.07 1.47 5.88 5 7.25 5.46 6.4 4.37 2.55 1.6 0.14 -0.18 9.09 5.6 6.08 3.57 5.97 2.64 4.9 1.66 0.72 -0.76 0.06 0.04 0.05 0.03 -0.42 0.89 2.92 1.26 9.95 4.26 0.99 -0.93 0.42 0.2 -0.75 0.97 9.23 4.57 5.33 3.34 6.82 4.62 4.34 3.08 0.55 -0.07 0.25 0.22 -0.42 0.12 4.64 4.23 6.23 5.86 4.03 4.1 5.98 6.4 6.39 7.96 5.49 7.61 0.47 0.73 3.53 5.42 3.09 6.02 2.34 5.1 0.02 0.1 -5.35 17.97 -8.6 -12.26 -4.14 -4.03 -2.8 -4.84 -3.56 -8.46 -14.62 -17.11 -23.8 -20.86 -6.9 -3.89 -23.21 -9.69 -11.97 -5.88 -11.09 -6.17 -30.7 -21.74 -4.85 -3.38 -3.75 -3.82 -7.05 -3.89 -2.35 -3.01 -5.43 -4.55 -9.99 -12.78 -7.55 -7.09 -5.58 -9.47 -4.08 -11.24 7.64 -4.4 8.48 -4.92 Z" />
				<path style="stroke:none" d="M1316.61 120.92 l0.04 2.91 0.91 -0.07 0.37 -0.03 -1.32 -2.82 Z" />
				<path style="stroke:none" d="M724.58 295.99 l0.1 0.24 0.24 0.09 0.2 -0.07 0.5 -0.58 0.19 -0.5 -0.16 -0.64 -0.24 0.28 -0.43 0.48 -0.34 0.41 -0.06 0.3 Z" />
				<path style="stroke:none" d="M375.16 85.85 h0 l-0.12 -0.09 -0.07 -0.11 -0.03 -0.13 0.01 -0.09 0.05 -0.13 0.1 -0.1 0.07 -0.04 0.14 -0.03 0.14 0.02 0.06 0.02 0.84 0.43 0.1 0.08 0.07 0.11 0.02 0.13 -0.02 0.12 -0.08 0.14 -0.1 0.08 -0.1 0.04 -0.12 0.01 -0.12 -0.04 -0.83 -0.43 Z" />
				<path style="stroke:none" d="M378.94 87.78 h0 l-0.12 -0.09 -0.07 -0.11 -0.03 -0.13 0.01 -0.09 0.05 -0.13 0.1 -0.1 0.07 -0.04 0.14 -0.03 0.14 0.02 0.05 0.02 0.84 0.43 0.1 0.08 0.07 0.11 0.02 0.13 -0.02 0.13 -0.08 0.14 -0.1 0.07 -0.1 0.04 -0.12 0.01 -0.12 -0.03 -0.83 -0.43 Z" />
				<path style="stroke:none" d="M109.66 31.4 l3.68 5.23 1.69 3.19 0.85 2.72 1.75 6.6 1.01 4.28 1.8 8.39 0.91 5.38 0.84 5.45 1.2 4.63 0.22 3.33 0.25 4.26 -2.01 -0.93 -0.01 -2.62 -0.18 -1.7 -0.9 -3.34 -1.18 -5.34 -2.14 -8.31 -2.03 -8.47 -2.55 -10.74 -0.75 -2.73 -1.16 -2.33 -2.37 -3.99 -3.54 -2.16 4.6 -0.8 Z" />
				<path style="stroke:none" d="M1029.13 5.72 l0.01 0.24 0.09 0.22 0.11 0.13 0.2 0.12 0.24 0.05 0.23 -0.04 0.28 -0.18 0.13 -0.2 0.05 -0.18 -0.01 -0.23 -0.12 -0.26 -0.17 -0.16 -0.22 -0.09 -0.24 -0.01 -0.22 0.07 -0.12 0.09 -0.15 0.18 -0.08 0.25 Z" />
				<path style="stroke:none" d="M1028.87 4.73 l0.21 -2.46 0.34 0.05 0.03 -0.54 0.39 -0.35 0.51 0 0.41 0.42 -0.05 0.56 0.4 0.05 -0.2 2.39 -2.05 -0.13 Z" />
				<path style="stroke:none" d="M611.52 103.66 l-0.02 0.08 -0.05 0.07 -0.06 0.04 -0.1 0.02 -0.09 -0.02 -0.06 -0.04 -0.01 -0.01 -0.06 -0.1 -0.01 -0.06 0.02 -0.09 0.05 -0.07 0.1 -0.06 0.06 -0.01 0.09 0.02 0.06 0.04 0.05 0.08 0.01 0.08 v0.02 Z" />
				<path style="stroke:none" d="M520.29 188.51 l-0.11 0.07 -0.08 0.1 -0.04 0.11 0 0.11 0.03 0.09 0.06 0.09 0.08 0.07 0.01 0.01 0.12 0.04 0.09 0 0.11 -0.03 0.07 -0.04 0.1 -0.13 0.03 -0.11 0 -0.07 -0.03 -0.12 -0.05 -0.08 -0.06 -0.05 -0.07 -0.04 -0.11 -0.03 -0.15 0.02 Z" />
				<path style="stroke:none" d="M525.16 168.19 l0.18 -0.09 0.2 -0.02 0.2 0.05 0.17 0.12 0.14 0.21 0.04 0.2 -0.03 0.2 -0.1 0.18 -0.11 0.1 -0.18 0.09 -0.2 0.02 -0.2 -0.05 -0.19 -0.13 -0.11 -0.17 -0.05 -0.2 0.02 -0.2 0.09 -0.18 0.13 -0.13 Z" />
				<path style="stroke:none" d="M521.15 161.83 l0.18 -0.09 0.2 -0.02 0.2 0.05 0.17 0.12 0.14 0.22 0.04 0.2 -0.03 0.2 -0.1 0.18 -0.11 0.1 -0.18 0.09 -0.2 0.02 -0.2 -0.05 -0.19 -0.13 -0.11 -0.17 -0.05 -0.2 0.03 -0.2 0.09 -0.18 0.13 -0.13 Z" />
				<path style="stroke:none" d="M582.75 300.29 l0.77 -0.17 0.07 0.01 0.04 0.06 0.1 0.44 -0.33 0.06 -0.02 -0.05 -0.04 -0.04 -0.06 -0.04 -0.1 -0.02 -0.09 0.05 -0.04 0.05 -0.02 0.07 0.01 0.05 -0.29 0.07 -0.1 -0.44 0.02 -0.07 0.07 -0.05 Z" />
				<path style="stroke:none" d="M1084.8 20.14 l-1.01 0.51 -0.47 0.39 -1.69 1.01 -0.2 0.55 0.21 0.57 0.76 0.46 1.16 -0.23 0.62 -0.63 0.62 -0.54 0.6 -0.46 0.4 -0.5 -0.05 -0.54 -0.49 -0.3 -0.46 -0.3 Z" />
				<path style="stroke:none" d="M123.87 84.86 l-0.78 11.39 -0.05 1.51 0.67 2.14 1.24 3.77 3.62 6.36 7.19 13.37 1.57 2.98 2.33 7.02 3.3 11.16 1.84 6.43 1 2.65 2 2.94 2.12 2.55 2.53 2.57 3.37 2.12 3.14 1.35 5.45 1.9 19.11 5.26 28.9 7.49 15.83 4.35 12.06 3.43 3.75 1.28 3.57 1.9 5.38 3.81 3.53 4.28 2.96 5.71 1.01 3.38 1.62 7.05 4.27 18.5 4.77 19.12 2.69 11.24 0.81 3.38 1.32 5.53 -0.94 1.84 -1.57 -2.94 -2.96 -11.07 -1.97 -7.99 0.02 -3.18 -2.87 -10.72 -2.65 -9.94 -2.77 -12.2 -2.59 -9.78 -2.89 -6.18 -2 -2.87 -2.92 -2.54 -2.52 -2.44 -3.12 -1.69 -3.22 -1.18 -23.85 -6.6 -14.4 -3.8 -15.51 -4.14 -14.48 -3.99 -10.88 -2.98 -4.35 -1.41 -4.28 -2.23 -2.44 -1.83 -1.14 -0.98 -1.4 -1.18 -1.1 -1.37 -0.78 -1.06 -2.35 -4.16 -1.53 -4.49 -0.97 -2.77 -2.73 -10.63 -2.82 -8.32 -2.35 -5.4 -6.23 -10.09 -1.58 -3 -1.93 -3.67 -2.45 -6.06 -0.05 -3.78 -0.02 -7.07 0.44 -5 2.01 0.93 Z" />
				<path style="stroke:none" d="M950.47 89.59 h0.26 l0.28 0.12 0.41 0.42 0.25 0.47 0.2 0.54 0.08 0.69 -0.04 0.35 -0.19 0.3 -0.29 0.11 -0.29 -0.07 -0.22 -0.12 -0.23 -0.21 -0.26 -0.41 -0.2 -0.4 -0.13 -0.41 -0.06 -0.42 v-0.26 l0.04 -0.25 0.13 -0.27 0.14 -0.13 0.12 -0.04 Z" />
				<path style="stroke:none" d="M407.07 230.03 l0.77 -0.24 0.94 2.97 -0.77 0.24 -0.94 -2.97 Z" />
				<path style="stroke:none" d="M408.58 235.21 l0.77 -0.24 0.94 2.97 -0.77 0.24 -0.94 -2.97 Z" />
				<path style="stroke:none" d="M569.42 95.91 l-0.24 0.17 -0.27 0.05 -0.15 -0.02 -0.24 -0.11 -0.21 -0.25 -0.07 -0.22 0.01 -0.24 0.07 -0.19 0.13 -0.16 0.16 -0.11 0.2 -0.07 0.21 0 0.24 0.08 0.18 0.14 0.16 0.29 0.02 0.27 -0.09 0.27 -0.09 0.12 Z" />
				<path style="stroke:none" d="M587.74 107.69 l-0.25 0.17 -0.28 0.05 -0.15 -0.02 -0.25 -0.12 -0.21 -0.25 -0.06 -0.22 0.01 -0.24 0.07 -0.19 0.13 -0.16 0.16 -0.11 0.19 -0.06 0.2 -0.01 0.23 0.07 0.18 0.14 0.17 0.29 0.02 0.27 -0.09 0.27 -0.09 0.12 Z" />
				<path style="stroke:none" d="M460.54 80.51 l-0.31 -0.32 1.54 -1.46 0.36 0.35 -1.58 1.43 Z" />
				<path style="stroke:none" d="M550.81 108.9 l-0.11 0.07 -0.09 0.12 -0.02 0.05 -0.01 0.18 0.03 0.09 0.04 0.07 0.12 0.1 0.07 0.03 0.18 0.01 0.13 -0.05 0.1 -0.09 0.06 -0.1 0.02 -0.07 -0.01 -0.15 -0.02 -0.05 -0.05 -0.09 -0.13 -0.11 -0.14 -0.04 -0.17 0.03 Z" />
				<path style="stroke:none" d="M634.59 115.49 l-0.2 -0.17 -0.11 -0.38 0.09 -0.39 0.3 -0.26 0.25 -0.14 0.28 -0.07 0.3 0.01 0.24 0.07 0.24 0.18 0.1 0.29 -0.03 0.23 -0.31 -0.07 -0.49 0.07 -0.45 0.28 -0.2 0.35 Z" />
				<path style="stroke:none" d="M587.27 60.47 l-0.1 0.02 -0.08 0.05 -0.06 0.09 -0.02 0.09 0.01 0.1 0.04 0.08 0.07 0.07 0.1 0.04 0.09 0 0.11 -0.03 0.07 -0.06 0.05 -0.08 0.02 -0.09 -0.01 -0.09 -0.05 -0.09 -0.09 -0.07 -0.13 -0.03 Z" />
				<path style="stroke:none" d="M579.8 101.64 l-0.33 0.05 -0.02 0.17 v0.13 l0.06 0.16 0.09 0.14 0.31 -0.05 -0.1 -0.6 Z" />
				<path style="stroke:none" d="M576.11 99.74 l0.05 0.33 0.18 0.02 0.17 0.01 0.17 -0.07 0.09 -0.08 -0.08 -0.33 -0.6 0.11 Z" />
				<path style="stroke:none" d="M594.57 109.07 l-0.07 0.06 -0.03 0.04 -0.03 0.08 0 0.11 0.04 0.08 0.08 0.08 0.09 0.03 0.1 0 0.09 -0.03 0.04 -0.03 0.06 -0.07 0.03 -0.08 0 -0.09 -0.02 -0.06 -0.05 -0.08 -0.05 -0.04 -0.09 -0.03 -0.09 0 -0.08 0.03 Z" />
				<path style="stroke:none" d="M599.4 109.88 l0.17 0.04 0.06 -0.23 -0.17 -0.04 -0.06 0.23 Z" />
				<path style="stroke:none" d="M588.82 84.08 l-0.1 0.03 -0.09 0.06 -0.06 0.09 -0.02 0.07 0 0.11 0.04 0.1 0.05 0.07 0.09 0.06 0.1 0.03 0.08 -0.01 0.1 -0.04 0.1 -0.1 0.04 -0.1 0 -0.11 -0.05 -0.13 -0.08 -0.07 -0.1 -0.04 -0.11 -0.01 Z" />
				<path style="stroke:none" d="M572.59 52.73 l0.34 -0.11 0.08 0.26 -0.34 0.11 -0.08 -0.26 Z" />
				<path style="stroke:none" d="M557.78 107.33 l-0.25 0.26 0 0.32 0.25 0.24 0.31 0.01 0.26 -0.25 -0.02 -0.31 -0.19 -0.25 -0.36 -0.03 Z" />
				<path style="stroke:none" d="M577.68 7.9 l0.45 0.44 2.12 -2.16 -0.45 -0.44 -2.12 2.16 Z" />
				<path style="stroke:none" d="M474 176.17 l0.05 -0.02 0.04 -0.03 0.03 -0.04 0.01 -0.05 -0.01 -0.05 -0.02 -0.04 -0.04 -0.03 -0.11 0.26 0.06 0 Z" />
				<path style="stroke:none" d="M276.02 272.8 l0.72 0.81 0.85 3.86 -0.22 0.71 0.89 3.61 0.4 1.88 -0.63 2.64 -0.35 0.94 -0.77 1.74 -6.34 6.29 -1.12 -0.01 -4.54 6.32 -1.05 2.51 -0.4 1.53 -1.42 3.89 -0.1 1.65 -0.92 3.46 -1.05 3.24 -1.1 -0.08 0.33 -3.48 0.34 -2.24 1.41 -5.9 0.76 -2.54 1.04 -0.1 1.64 -4.08 -0.74 -0.76 1.89 -1.96 2.73 -2.65 5.5 -5.5 1.85 -2.34 1.04 -2.09 0.07 -2.42 -0.48 -2.64 -0.55 -3.94 -0.62 -0.52 0.94 -1.84 Z" />
				<path style="stroke:none" d="M509.7 159.92 l0.48 0.18 0.34 -0.18 0.07 -0.5 -0.11 -0.16 -0.24 -0.07 -0.22 0.07 -0.19 0.1 -0.15 0.19 -0.05 0.18 0.07 0.2 Z" />
				<path style="stroke:none" d="M511.07 162.31 l-0.17 -0.03 -0.16 -0.25 0.04 -0.22 0.23 -0.16 0.18 0.04 0.32 -0.22 0.04 -0.19 0.23 -0.16 0.23 0.05 0.16 0.25 -0.04 0.18 0.25 0.35 0.18 0.05 0.16 0.24 -0.04 0.24 -0.23 0.15 -0.2 -0.03 -0.3 0.2 -0.04 0.19 -0.25 0.16 -0.2 -0.05 -0.19 -0.27 0.05 -0.17 -0.24 -0.36 Z" />
				<path style="stroke:none" d="M495.43 159.42 l1.2 2.3 0.41 0.8 2.77 5.4 1.34 2.6 3.02 5.87 1.14 2.22 3 5.84 -2.37 1.35 -3.49 -6.25 -0.39 -0.7 -5.38 -9.61 -4.55 -8.12 3.3 -1.7 Z" />
				<path style="stroke:none" d="M502.32 161.78 l-0.59 1.34 -0.1 0.13 -0.11 0.09 -0.13 0.06 -0.15 0.02 -0.52 -0.23 -0.07 -0.09 -0.04 -0.13 -0.03 -0.17 0.01 -0.16 0.6 -1.37 0.11 -0.12 0.1 -0.07 0.14 -0.03 0.12 -0.01 0.52 0.23 0.08 0.09 0.06 0.12 0.02 0.15 -0.03 0.17 Z" />
				<path style="stroke:none" d="M509.22 173.76 l-0.05 -0.08 -0.08 -0.05 -0.09 -0.02 -0.08 0.01 -0.05 -0.15 -0.03 -0.22 -0.01 -0.18 -0.05 0 -0.04 -0.02 -0.05 -0.04 -0.02 -0.05 -0.07 0.01 -0.01 -0.27 0.02 -0.25 0.03 -0.23 0.06 -0.26 0.08 -0.25 0.11 -0.24 0.06 0.03 0.04 -0.04 0.07 -0.02 0.08 0.01 0.06 -0.13 0.1 -0.18 0.12 -0.17 0.07 0.03 0.07 0.02 0.11 -0.01 0.11 -0.06 0.19 0.29 -0.06 0.05 0.25 0.38 0.06 -0.04 0.2 0.28 -0.07 0.07 -0.13 0.2 0.06 0.05 0.02 0.16 0 0.1 -0.03 0.12 -0.05 0.12 -0.06 0.1 -0.07 0.04 0.03 0.21 0.06 0.09 -0.3 0.2 -0.04 -0.05 -0.36 0.24 0.04 0.05 -0.32 0.21 Z" />
				<path style="stroke:none" d="M512.83 175.68 l-0.09 0.04 -0.06 0.08 -0.02 0.09 0 0.08 -0.15 0.04 -0.22 0.03 h-0.18 l-0.01 0.05 -0.02 0.04 -0.05 0.05 -0.05 0.02 0 0.07 -0.27 0 -0.25 -0.03 -0.23 -0.04 -0.26 -0.07 -0.25 -0.09 -0.24 -0.12 0.03 -0.06 -0.04 -0.04 -0.02 -0.07 0.01 -0.08 -0.12 -0.06 -0.18 -0.11 -0.17 -0.13 0.04 -0.07 0.02 -0.07 -0.01 -0.11 -0.05 -0.11 0.3 -0.19 0.05 0.06 0.39 -0.24 -0.04 -0.06 0.29 -0.2 0.06 0.08 0.19 0.14 0.05 -0.05 0.16 -0.02 0.1 0.01 0.12 0.03 0.11 0.05 0.1 0.07 0.03 0.07 0.21 -0.02 0.09 -0.06 0.19 0.31 -0.05 0.04 0.23 0.37 0.05 -0.03 0.2 0.33 Z" />
				<path style="stroke:none" d="M514.83 172.04 l0.04 0.09 0.08 0.06 0.09 0.03 0.08 0 0.04 0.15 0.02 0.22 0 0.18 0.05 0.01 0.03 0.02 0.05 0.05 0.02 0.05 0.07 0 -0.01 0.27 -0.04 0.25 -0.04 0.23 -0.07 0.26 -0.09 0.25 -0.12 0.23 -0.06 -0.03 -0.05 0.04 -0.07 0.02 -0.08 -0.01 -0.06 0.12 -0.11 0.18 -0.13 0.17 -0.06 -0.04 -0.07 -0.02 -0.11 0.01 -0.11 0.05 -0.18 -0.3 0.06 -0.05 -0.24 -0.39 -0.07 0.04 -0.18 -0.29 0.07 -0.07 0.14 -0.19 -0.05 -0.05 -0.01 -0.16 0.01 -0.1 0.04 -0.12 0.05 -0.11 0.07 -0.1 0.07 -0.03 -0.02 -0.21 -0.06 -0.09 0.31 -0.18 0.04 0.05 0.37 -0.22 -0.03 -0.05 0.33 -0.2 Z" />
				<path style="stroke:none" d="M506.84 178.08 l0.05 0.03 0.05 0.03 0.05 0.05 0.03 0.06 -0.02 0.09 0.02 0.04 -0.07 0.04 0.17 0.28 0.07 -0.04 0.03 0.05 0.08 0.02 0.05 0.04 0.05 0.06 0.02 0.08 -0.03 0.07 0.03 0.05 -0.06 0.05 0.12 0.2 0.07 -0.04 0.1 -0.02 0.07 0.04 0.04 0.07 0.04 -0.02 0.11 0.17 -0.04 0.04 0.03 0.05 0.01 0.09 -0.07 0.07 -0.07 0.04 0.15 0.24 0.07 -0.04 0.03 0.05 0.08 0.02 0.05 0.06 0.04 0.08 -0.02 0.07 0.03 0.06 -0.06 0.04 0.16 0.25 0.06 -0.05 0.03 0.04 0.07 0.01 0.06 0.03 0.05 0.05 0.04 0.09 v0.06 l-0.03 0.05 -0.11 0.07 -1.71 -2.79 0.12 -0.06 Z" />
				<path style="stroke:none" d="M505.04 175.41 l-1.71 -2.79 0.11 -0.07 0.05 0.02 0.05 0.03 0.05 0.05 0.03 0.06 -0.02 0.09 0.02 0.04 -0.07 0.05 0.17 0.28 0.07 -0.04 0.03 0.05 0.08 0.02 0.05 0.05 0.05 0.06 0.02 0.08 -0.03 0.07 0.03 0.05 -0.06 0.05 0.12 0.2 0.07 -0.04 0.1 -0.02 0.07 0.04 0.04 0.07 0.04 -0.02 0.11 0.16 -0.04 0.04 0.03 0.05 0.01 0.09 -0.07 0.07 -0.07 0.04 0.15 0.24 0.07 -0.04 0.03 0.05 0.08 0.02 0.05 0.06 0.04 0.08 -0.02 0.07 0.03 0.06 -0.06 0.04 0.16 0.25 0.06 -0.05 0.03 0.04 0.07 0.01 0.06 0.03 0.05 0.04 0.03 0.09 v0.06 l-0.03 0.05 -0.11 0.08 Z" />
				<path style="stroke:none" d="M562.32 191.59 l0.11 -0.19 0.21 -0.05 0.19 0.11 0.06 0.25 -0.12 0.17 -0.2 0.05 -0.2 -0.1 -0.06 -0.24 Z" />
				<path style="stroke:none" d="M332.97 280.49 l0.32 0.86 2.58 -0.96 -0.32 -0.86 -2.58 0.96 Z" />
			</g>
			<g id="water__fill1">
				<path style="stroke:none" d="M521.82 309.14 l0.39 -1.37 0.84 0.26 -0.38 1.35 -0.85 -0.25 Z" />
				<path style="stroke:none" d="M522.87 306.32 l0.93 -3.27 0.47 0.16 -0.94 3.23 -0.46 -0.12 Z" />
				<path style="stroke:none" d="M524.07 302.23 l0.38 -1.37 0.46 0.1 -0.38 1.4 -0.46 -0.14 Z" />
				<path style="stroke:none" d="M526.34 294.57 l0.34 -1.23 0.45 0.14 -0.34 1.21 -0.45 -0.12 Z" />
				<path style="stroke:none" d="M526.9 292.66 l0.75 -2.63 0.49 0.13 -0.77 2.62 -0.47 -0.13 Z" />
				<path style="stroke:none" d="M645.2 317.46 l0.53 -0.07 0.34 0.21 0.23 0.28 v0.24 l-0.16 0.21 0.17 0.19 0.16 0.3 -0.07 0.39 -0.24 0.23 0.09 0.24 0.37 0.07 0.26 0.21 0.19 0.26 -0.02 0.44 -0.21 0.42 -0.39 0.23 -0.46 -0.07 -0.33 -0.19 -0.47 -0.17 -0.28 0.12 -0.23 0.37 -0.82 -0.56 0.37 -0.63 -0.17 -0.88 0.31 -0.03 0.89 -1.47 -0.07 -0.33 Z" />
				<path style="stroke:none" d="M641.96 323.19 l1.1 -1.68 2.59 1.64 -1.1 1.73 -2.59 -1.7 Z" />
				<path style="stroke:none" d="M639.24 320.73 l0.14 -0.3 0.28 -0.16 0.43 0.01 0.12 0.26 -0.03 0.28 -0.28 0.08 0.04 0.31 -0.08 0.19 -0.17 0.08 -0.22 -0.02 -0.19 -0.3 -0.02 -0.43 Z" />
				<path style="stroke:none" d="M640.3 321.14 l0.1 -0.27 0.22 -0.12 0.26 0.07 0.11 0.22 -0.08 0.28 -0.24 0.12 -0.24 -0.1 -0.12 -0.22 Z" />
				<path style="stroke:none" d="M561.76 166.05 l0.25 -1.2 0.06 -0.08 0.07 -0.04 0.08 -0.01 0.88 0.19 0.08 0.04 0.07 0.07 0.03 0.11 -0.26 1.2 -0.23 -0.05 0 -0.05 -0.02 -0.07 -0.04 -0.06 -0.06 -0.05 -0.47 -0.11 -0.08 0.01 -0.06 0.03 -0.05 0.06 -0.02 0.05 -0.23 -0.05 Z" />
			</g>
		</g>
		
		<g id="Map_decoration" style="stroke:#000000;font-family:Tahoma;font-size:14px;font-weight:bold">
			<g id="floating_label">
				<g style="stroke-width:3;stroke:#FFFFFF;fill:none;stroke-opacity:0.75">
					<text transform="translate(1067.21,475.2) scale(0.8,1)">© OpenStreetMap contributors. Tiles: CC-BY-SA 2.0</text>
					<text transform="translate(1128.34,492.1) scale(0.8,1)">Map data © OpenStreetMap contributors</text>
				</g>
				<g style="fill:#000000;stroke:none;fill-opacity:1">
					<text transform="translate(1067.21,475.2) scale(0.8,1)">© OpenStreetMap contributors. Tiles: CC-BY-SA 2.0</text>
					<text transform="translate(1128.34,492.1) scale(0.8,1)">Map data © OpenStreetMap contributors</text>
				</g>
			</g>
		</g>
		<g id="Map_frame" style="stroke:black;stroke-width:2;fill:none">
			<rect x="0" y="0" width="1366" height="500" />
		</g>
		<!--Sektion, wo die Kreise gesetzt werden und die Links enthalten sind. Offensichtlicherweise sind Inhaltslinks in die
			a-Tags zu setzen.
		-->
		<g>
			<a xlink:href="5480.1.png"><use xlink:href="#mark_1" id="semperoper" transform="translate(522, 153)"/></a>
			
			<a xlink:href=""><use xlink:href="#mark_1" id="frauenkirche" transform="translate(580, 187)"/></a>
			
			<a xlink:href=""><use xlink:href="#mark_1" id="waldschlbr" transform="translate(882, 24) scale(1.2)"/></a>
			
			<a xlink:href=""><use xlink:href="#mark_1" id="grossergarten" transform="translate(760, 380)"/></a>
			
			<a xlink:href=""><use xlink:href="#mark_1" id="altmarkt" transform="translate(549, 217)"/></a>
		</g>
	</g>
</svg>