<svg
   xmlns:dc="http://purl.org/dc/elements/1.1/"
   xmlns:cc="http://creativecommons.org/ns#"
   xmlns:rdf="http://www.w3.org/1999/02/22-rdf-syntax-ns#"
   xmlns:svg="http://www.w3.org/2000/svg"
   xmlns="http://www.w3.org/2000/svg"
   xmlns:sodipodi="http://sodipodi.sourceforge.net/DTD/sodipodi-0.dtd"
   xmlns:inkscape="http://www.inkscape.org/namespaces/inkscape"
   width="243.89999"
   height="252.89999"
   id="svg2"
   sodipodi:version="0.32"
   inkscape:version="0.47 r22583"
   version="1.0"
   sodipodi:docname="Dresden_Stadtwappen.svg"
   inkscape:output_extension="org.inkscape.output.svg.inkscape">
  <defs
     id="defs4">
    <inkscape:perspective
       sodipodi:type="inkscape:persp3d"
       inkscape:vp_x="0 : 125.5 : 1"
       inkscape:vp_y="0 : 1000 : 0"
       inkscape:vp_z="242 : 125.5 : 1"
       inkscape:persp3d-origin="121 : 83.666667 : 1"
       id="perspective9" />
    <inkscape:perspective
       id="perspective2485"
       inkscape:persp3d-origin="372.04724 : 350.78739 : 1"
       inkscape:vp_z="744.09448 : 526.18109 : 1"
       inkscape:vp_y="0 : 1000 : 0"
       inkscape:vp_x="0 : 526.18109 : 1"
       sodipodi:type="inkscape:persp3d" />
    <inkscape:perspective
       id="perspective4630"
       inkscape:persp3d-origin="0.5 : 0.33333333 : 1"
       inkscape:vp_z="1 : 0.5 : 1"
       inkscape:vp_y="0 : 1000 : 0"
       inkscape:vp_x="0 : 0.5 : 1"
       sodipodi:type="inkscape:persp3d" />
  </defs>
  <sodipodi:namedview
     id="base"
     pagecolor="#ffffff"
     bordercolor="#666666"
     borderopacity="1.0"
     inkscape:pageopacity="0.0"
     inkscape:pageshadow="2"
     inkscape:zoom="1"
     inkscape:cx="193.74825"
     inkscape:cy="205.80927"
     inkscape:document-units="px"
     inkscape:current-layer="layer1"
     width="242px"
     height="251px"
     showguides="false"
     inkscape:guide-bbox="true"
     showgrid="false"
     inkscape:object-paths="false"
     inkscape:object-nodes="true"
     objecttolerance="20"
     gridtolerance="20"
     guidetolerance="20"
     inkscape:snap-global="false"
     inkscape:window-width="1280"
     inkscape:window-height="725"
     inkscape:window-x="0"
     inkscape:window-y="24"
     inkscape:window-maximized="1">
    <sodipodi:guide
       orientation="1,0"
       position="121.00000,121.00000"
       id="guide2493" />
    <sodipodi:guide
       orientation="1,0"
       position="181.50000,0.0"
       id="guide3269" />
  </sodipodi:namedview>
  <metadata
     id="metadata7">
    <rdf:RDF>
      <cc:Work
         rdf:about="">
        <dc:format>image/svg+xml</dc:format>
        <dc:type
           rdf:resource="http://purl.org/dc/dcmitype/StillImage">image/svg+xml</dc:type>
      </cc:Work>
    </rdf:RDF>
  </metadata>
  <g
     inkscape:label="Ebene 1"
     inkscape:groupmode="layer"
     id="layer1"
     style="opacity:1;display:inline"
     transform="translate(0.95,0.95)">
    <g
       id="g3405"
       style="fill:#ffe000;fill-opacity:1;stroke:#000000;stroke-width:1.89999998;stroke-miterlimit:4;stroke-dasharray:none;stroke-opacity:1">
      <path
         id="path3297"
         d="M 0,0 L 0,192.40625 C 7.7946908e-16,205.14473 11.256756,222.96506 30.25,227.5 L 121,251 L 211.75,227.5 C 230.74325,222.96506 242,205.14473 242,192.40625 L 242,0 L 121,0 L 0,0 z"
         style="fill:#ffe000;fill-opacity:1;fill-rule:evenodd;stroke:#000000;stroke-width:1.89999998;stroke-linecap:round;stroke-linejoin:miter;marker:none;marker-start:none;marker-mid:none;marker-end:none;stroke-miterlimit:4;stroke-dasharray:none;stroke-dashoffset:0;stroke-opacity:1;visibility:visible;display:inline;overflow:visible;enable-background:accumulate" />
      <path
         sodipodi:nodetypes="cc"
         id="path3403"
         d="M 121,0 L 121,251"
         style="fill:#ffe000;fill-opacity:1;fill-rule:evenodd;stroke:#000000;stroke-width:1.89999998;stroke-linecap:butt;stroke-linejoin:miter;stroke-miterlimit:4;stroke-dasharray:none;stroke-opacity:1" />
    </g>
    <g
       id="g5417"
       style="stroke:#000000;stroke-opacity:1;stroke-width:1;stroke-miterlimit:4;stroke-dasharray:none">
      <g
         id="g3442"
         transform="matrix(0,5.2089161,5.2089161,0,39.269662,10.392727)"
         style="opacity:1;fill:#e34234;fill-opacity:1;stroke:#000000;stroke-width:0.19197852;stroke-miterlimit:4;stroke-opacity:1;stroke-dasharray:none">
        <path
           d="M 0,0 C 0,0 -0.6,0.66 -0.54,0.96 -0.3,1.2 0.54,0.84 0.54,0.84"
           style="fill:#e34234;fill-opacity:1;stroke:#000000;stroke-width:0.19197852;stroke-linecap:round;stroke-linejoin:round;stroke-miterlimit:4;stroke-opacity:1;stroke-dasharray:none"
           id="path3444" />
        <g
           id="g3446"
           transform="translate(0.06,-2.82)"
           style="fill:#e34234;fill-opacity:1;stroke:#000000;stroke-width:0.19197852;stroke-miterlimit:4;stroke-opacity:1;stroke-dasharray:none">
          <path
             d="M 0,0 C 0,0 -0.78,-0.72 -0.72,-1.02 -0.48,-1.2 0.6,-0.96 0.6,-0.96"
             style="fill:#e34234;fill-opacity:1;stroke:#000000;stroke-width:0.19197852;stroke-linecap:round;stroke-linejoin:round;stroke-miterlimit:4;stroke-opacity:1;stroke-dasharray:none"
             id="path3448" />
          <g
             id="g3450"
             transform="translate(3.36,-2.7)"
             style="fill:#e34234;fill-opacity:1;stroke:#000000;stroke-width:0.19197852;stroke-miterlimit:4;stroke-opacity:1;stroke-dasharray:none">
            <path
               d="M 0,0 C 0,0 -0.42,-0.9 -0.78,-0.84 -1.02,-0.72 -0.9,0.24 -0.9,0.24"
               style="fill:#e34234;fill-opacity:1;stroke:#000000;stroke-width:0.19197852;stroke-linecap:round;stroke-linejoin:round;stroke-miterlimit:4;stroke-opacity:1;stroke-dasharray:none"
               id="path3452" />
            <g
               id="g3454"
               transform="translate(2.4,0)"
               style="fill:#e34234;fill-opacity:1;stroke:#000000;stroke-width:0.19197852;stroke-miterlimit:4;stroke-opacity:1;stroke-dasharray:none">
              <path
                 d="M 0,0 C 0,0 0.72,-0.72 0.96,-0.66 1.2,-0.36 0.9,0.54 0.9,0.54"
                 style="fill:#e34234;fill-opacity:1;stroke:#000000;stroke-width:0.19197852;stroke-linecap:round;stroke-linejoin:round;stroke-miterlimit:4;stroke-opacity:1;stroke-dasharray:none"
                 id="path3456" />
              <g
                 id="g3458"
                 transform="translate(6.96,1.8)"
                 style="fill:#e34234;fill-opacity:1;stroke:#000000;stroke-width:0.19197852;stroke-miterlimit:4;stroke-opacity:1;stroke-dasharray:none">
                <path
                   d="m 0,0 c 0,0 -0.96,-0.12 -1.14,0.18 0,0.3 0.78,0.78 0.78,0.78"
                   style="fill:#e34234;fill-opacity:1;stroke:#000000;stroke-width:0.19197852;stroke-linecap:round;stroke-linejoin:round;stroke-miterlimit:4;stroke-opacity:1;stroke-dasharray:none"
                   id="path3460" />
                <g
                   id="g3462"
                   transform="translate(2.28,-1.56)"
                   style="fill:#e34234;fill-opacity:1;stroke:#000000;stroke-width:0.19197852;stroke-miterlimit:4;stroke-opacity:1;stroke-dasharray:none">
                  <path
                     d="m 0,0 c 0,0 0.12,-1.08 0.36,-1.2 0.24,0.12 0.72,1.14 0.72,1.14"
                     style="fill:#e34234;fill-opacity:1;stroke:#000000;stroke-width:0.19197852;stroke-linecap:round;stroke-linejoin:round;stroke-miterlimit:4;stroke-opacity:1;stroke-dasharray:none"
                     id="path3464" />
                  <g
                     id="g3466"
                     transform="translate(4.26,0.84)"
                     style="fill:#e34234;fill-opacity:1;stroke:#000000;stroke-width:0.19197852;stroke-miterlimit:4;stroke-opacity:1;stroke-dasharray:none">
                    <path
                       d="m 0,0 c 0,0 0.36,-0.9 0.12,-1.14 -0.24,-0.06 -0.9,0.6 -0.9,0.6"
                       style="fill:#e34234;fill-opacity:1;stroke:#000000;stroke-width:0.19197852;stroke-linecap:round;stroke-linejoin:round;stroke-miterlimit:4;stroke-opacity:1;stroke-dasharray:none"
                       id="path3468" />
                    <g
                       id="g3470"
                       transform="translate(1.44,2.1)"
                       style="fill:#e34234;fill-opacity:1;stroke:#000000;stroke-width:0.19197852;stroke-miterlimit:4;stroke-opacity:1;stroke-dasharray:none">
                      <path
                         d="M 0,0 C 0,0 1.08,0.12 1.2,0.36 1.08,0.72 0,1.2 0,1.2"
                         style="fill:#e34234;fill-opacity:1;stroke:#000000;stroke-width:0.19197852;stroke-linecap:round;stroke-linejoin:round;stroke-miterlimit:4;stroke-opacity:1;stroke-dasharray:none"
                         id="path3472" />
                      <g
                         id="g3474"
                         transform="translate(14.28,-2.7)"
                         style="fill:#e34234;fill-opacity:1;stroke:#000000;stroke-width:0.19197852;stroke-miterlimit:4;stroke-opacity:1;stroke-dasharray:none">
                        <path
                           d="M 0,0 C 0,0 -0.6,-0.84 -0.9,-0.84 -1.14,-0.6 -0.96,0.3 -0.96,0.3"
                           style="fill:#e34234;fill-opacity:1;stroke:#000000;stroke-width:0.19197852;stroke-linecap:round;stroke-linejoin:round;stroke-miterlimit:4;stroke-opacity:1;stroke-dasharray:none"
                           id="path3476" />
                        <g
                           id="g3478"
                           transform="translate(2.7,0.66)"
                           style="fill:#e34234;fill-opacity:1;stroke:#000000;stroke-width:0.19197852;stroke-miterlimit:4;stroke-opacity:1;stroke-dasharray:none">
                          <path
                             d="M 0,0 C 0,0 0.9,-0.6 1.14,-0.48 1.26,-0.24 0.78,0.78 0.78,0.78"
                             style="fill:#e34234;fill-opacity:1;stroke:#000000;stroke-width:0.19197852;stroke-linecap:round;stroke-linejoin:round;stroke-miterlimit:4;stroke-opacity:1;stroke-dasharray:none"
                             id="path3480" />
                          <g
                             id="g3482"
                             transform="translate(2.16,3.84)"
                             style="fill:#e34234;fill-opacity:1;stroke:#000000;stroke-width:0.19197852;stroke-miterlimit:4;stroke-opacity:1;stroke-dasharray:none">
                            <path
                               d="M 0,0 C 0,0 0.96,-0.3 0.96,-0.72 0.84,-0.96 -0.12,-0.96 -0.12,-0.96"
                               style="fill:#e34234;fill-opacity:1;stroke:#000000;stroke-width:0.19197852;stroke-linecap:round;stroke-linejoin:round;stroke-miterlimit:4;stroke-opacity:1;stroke-dasharray:none"
                               id="path3484" />
                            <g
                               id="g3486"
                               transform="translate(-0.6,2.4)"
                               style="fill:#e34234;fill-opacity:1;stroke:#000000;stroke-width:0.19197852;stroke-miterlimit:4;stroke-opacity:1;stroke-dasharray:none">
                              <path
                                 d="M 0,0 C 0,0 0.6,0.78 0.48,1.02 0.24,1.2 -0.6,0.9 -0.6,0.9"
                                 style="fill:#e34234;fill-opacity:1;stroke:#000000;stroke-width:0.19197852;stroke-linecap:round;stroke-linejoin:round;stroke-miterlimit:4;stroke-opacity:1;stroke-dasharray:none"
                                 id="path3488" />
                              <g
                                 id="g3490"
                                 transform="translate(-0.72,3.78)"
                                 style="fill:#e34234;fill-opacity:1;stroke:#000000;stroke-width:0.19197852;stroke-miterlimit:4;stroke-opacity:1;stroke-dasharray:none">
                                <path
                                   d="m 0,0 c 0,0 -0.42,-0.84 -0.78,-0.9 -0.24,0.18 -0.24,1.08 -0.24,1.08"
                                   style="fill:#e34234;fill-opacity:1;stroke:#000000;stroke-width:0.19197852;stroke-linecap:round;stroke-linejoin:round;stroke-miterlimit:4;stroke-opacity:1;stroke-dasharray:none"
                                   id="path3492" />
                                <g
                                   id="g3494"
                                   transform="translate(2.7,1.02)"
                                   style="fill:#e34234;fill-opacity:1;stroke:#000000;stroke-width:0.19197852;stroke-miterlimit:4;stroke-opacity:1;stroke-dasharray:none">
                                <path
                                   d="M 0,0 C 0,0 1.02,-0.48 1.2,-0.3 1.32,-0.06 0.72,0.9 0.72,0.9"
                                   style="fill:#e34234;fill-opacity:1;stroke:#000000;stroke-width:0.19197852;stroke-linecap:round;stroke-linejoin:round;stroke-miterlimit:4;stroke-opacity:1;stroke-dasharray:none"
                                   id="path3496" />
                                <g
                                   id="g3498"
                                   transform="translate(1.5,4.2)"
                                   style="fill:#e34234;fill-opacity:1;stroke:#000000;stroke-width:0.19197852;stroke-miterlimit:4;stroke-opacity:1;stroke-dasharray:none">
                                <path
                                   d="M 0,0 C 0,0 1.02,-0.12 1.14,-0.6 1.08,-0.9 0,-1.02 0,-1.02"
                                   style="fill:#e34234;fill-opacity:1;stroke:#000000;stroke-width:0.19197852;stroke-linecap:round;stroke-linejoin:round;stroke-miterlimit:4;stroke-opacity:1;stroke-dasharray:none"
                                   id="path3500" />
                                <g
                                   id="g3502"
                                   transform="translate(-0.84,2.28)"
                                   style="fill:#e34234;fill-opacity:1;stroke:#000000;stroke-width:0.19197852;stroke-miterlimit:4;stroke-opacity:1;stroke-dasharray:none">
                                <path
                                   d="M 0,0 C 0,0 0.48,1.02 0.36,1.26 0,1.38 -0.96,0.72 -0.96,0.72"
                                   style="fill:#e34234;fill-opacity:1;stroke:#000000;stroke-width:0.19197852;stroke-linecap:round;stroke-linejoin:round;stroke-miterlimit:4;stroke-opacity:1;stroke-dasharray:none"
                                   id="path3504" />
                                </g>
                                </g>
                                </g>
                              </g>
                            </g>
                          </g>
                        </g>
                      </g>
                    </g>
                  </g>
                </g>
              </g>
            </g>
          </g>
        </g>
      </g>
      <path
         d="m 70.210624,33.20778 c -1.87521,-0.62507 -2.812815,-1.25014 -5.313094,-0.62507 -2.812815,0.312535 -5.00056,3.12535 -10.626189,3.75042 -3.437885,0.62507 -10.313654,-2.50028 -9.688584,-10.938724 1.562675,6.250699 5.313094,7.188304 9.063514,6.875769 3.125349,-0.312535 4.688024,-2.50028 8.438444,-2.812815 4.375489,-0.312535 5.938164,1.87521 8.125909,3.75042 z"
         style="opacity:1;fill:#e34234;fill-opacity:1;stroke:#000000;stroke-width:1;stroke-linecap:round;stroke-linejoin:round;stroke-miterlimit:4;stroke-opacity:1;stroke-dasharray:none"
         id="path3440" />
    </g>
    <path
       style="opacity:1;fill:#000000;stroke:none;stroke-width:1;stroke-miterlimit:4;stroke-opacity:1;stroke-dasharray:none"
       d="m 93.03125,4.46875 c -4.37549,0.9376049 -4.062221,3.43743 -6.5625,4.0625 -16.564353,-1.5626749 -20.312465,1.87458 -20.625,5.625 -9.688584,0.937605 -9.374965,1.24979 -9.6875,3.125 -0.312535,3.437884 0.3125,7.1875 0.3125,7.1875 0.62507,1.562675 1.24986,4.062255 2.5,6.25 3.437884,-3.125349 4.999755,-4.0625 7.1875,-4.0625 4.062954,0 4.99993,2.187255 5.625,4.375 0.937605,3.12535 -1.249791,5.624966 -3.125,5.9375 -3.437885,1.562675 -6.25,-3.125384 -6.25,0.3125 0,5.313095 2.49972,7.812535 5,7.5 5.625629,0 9.062255,-7.813059 11.25,-2.8125 0.937604,1.87521 -12.49958,18.75007 -16.25,18.125 -1.25014,0 -6.874371,-6.874196 -12.5,-14.0625 -6.2507,-7.50084 -13.125035,-15.31229 -12.8125,-17.1875 0,-5.313094 5.312221,-4.99972 7.8125,-7.5 4.701199,-7.86071 -4.81003,-13.8533874 -10.625,-7.1875 -2.500279,4.062955 1.875384,7.18736 -1.5625,8.4375 -4.37549,-0.937605 -0.312325,-4.37458 -1.875,-8.125 -3.315336,-7.492373 -14.337883,-1.711153 -10.9375,5.3125 2.187745,3.437885 7.81278,3.749615 5.3125,7.1875 -3.437885,2.187744 -3.749511,-4.687465 -8.125,-5 -6.843157,-0.3344 -8.6953309,9.153385 -2.5,11.5625 4.062954,0.62507 6.874825,-2.812885 8.4375,0.625 0,4.688024 -5.937115,-2.8e-4 -9.375,2.5 -6.3586172,4.73385 -0.253231,13.884527 6.5625,11.25 3.437885,-2.500279 3.124405,-8.437745 8.4375,-6.25 0.937605,0.312535 2.81257,3.124721 2.1875,5.625 -1.25014,4.062955 -6.875035,8.124476 -6.5625,12.8125 0.312535,4.062955 3.43729,10.624831 5.3125,12.1875 -3.12535,-9.063513 7.812675,-6.874021 6.25,-15.625 1.87521,3.437885 7.8125,22.8125 7.8125,22.8125 -3.437884,5.313094 -9.062291,11.25007 -10.9375,10.625 -5.00056,-1.875209 -0.62493,-6.562081 -1.25,-10.3125 -3.260055,-8.525075 -13.919199,-3.719747 -11.875,4.375 1.87521,4.688025 6.875175,2.812081 5.3125,6.5625 -2.812815,2.812815 -3.124511,-2.499895 -7.5,-3.4375 -8.195864,-0.997987 -9.0882766,9.851219 -1.875,12.1875 4.062954,0 7.49986,-4.062954 8.75,0 -0.62507,4.06296 -5.937186,-3.88e-4 -8.75,3.4375 -5.03702,5.52135 1.377151,12.32063 7.5,8.75 3.437885,-2.81281 1.87458,-6.87511 5.625,-5.9375 3.75042,2.50028 -3.437465,4.37455 -3.75,8.4375 -0.01267,7.80618 10.879845,10.07877 12.8125,2.1875 0.312535,-4.37549 -4.687919,-6.56212 -0.9375,-10 1.562675,-1.87521 3.749825,-1.8751 5.3125,-0.9375 2.500279,1.56268 1.5625,6.5625 1.5625,6.5625 9.688584,-4.68803 10.937255,-9.0625 13.125,-9.0625 1.562675,0 15.624196,14.99815 22.8125,31.5625 0,0 2.18757,5.93747 1.5625,6.25 -0.62507,0 -1.249965,3e-5 -1.5625,-0.3125 -20.314772,-11.5638 -21.873426,-12.18729 -35.9375,-14.0625 -5.313094,-0.9376 -13.437115,1.87447 -16.875,6.5625 -3.437885,5.62563 -1.874965,12.81246 -2.1875,13.125 -2.187745,3.43788 -10,4.68669 -10,11.875 0,2.50028 1.249686,5.03073 4.0625,9.71875 -1.562674,-6.2507 8.74993,-7.21815 9.375,-12.53125 0,0 1.5625,1.87468 1.5625,4.6875 0,4.37549 -6.874965,3.78042 -7.1875,11.28125 0,3.43789 2.499685,5.93719 5.3125,8.75 -1.87521,-7.50084 9.37528,-6.24906 6.875,-14.6875 4.688025,3.75042 8.75,4.0623 8.75,5.9375 0,1.87521 -2.812185,6.87447 -5.625,11.5625 -2.812815,5.31309 -5.31236,10.625 -6.5625,10.625 -5.313095,0.9376 -5.62465,-4.06229 -8.75,-5.9375 -8.410476,-3.43315 -12.326257,7.37204 -5,11.5625 4.688024,1.87521 7.499825,-3.12538 9.0625,0.3125 0,4.06296 -3.749615,0.93722 -7.1875,3.4375 -6.27951,5.06244 0.903271,13.77306 7.5,9.375 2.812815,-3.12535 1.562045,-8.12517 5.625,-6.5625 2.500279,3.12535 -3.75007,4.68701 -3.125,9.0625 0.851953,7.15106 10.545049,7.40727 11.5625,0.3125 0,-4.37549 -4.06285,-6.24979 -0.9375,-8.125 4.375489,-1.25014 1.562186,5.31215 4.375,8.4375 5.921196,5.27063 14.77575,-2.1862 9.6875,-8.4375 -2.812814,-3.43788 -9.687605,-1.24941 -8.75,-6.5625 0,-2.50028 2.18722,-4.68719 4.6875,-7.5 2.812814,-3.43789 5.624895,-6.87489 6.5625,-7.8125 -2.50028,7.50084 6.562779,9.06198 4.0625,13.75 5.000559,-4.68802 6.5625,-9.0625 6.5625,-9.0625 0,-5.62563 -5,-6.56215 -5,-9.6875 0,-4.37549 5,-5.93711 5,-9.375 0,-4.37548 -13.4375,-5.9677 -13.4375,-15.34375 0,-6.56323 4.999126,-9.0625 12.8125,-9.0625 7.500839,0 15.625,3.12486 15.625,4.375 0,3.12535 -12.187535,15.3427 -11.875,24.71875 0,11.25126 19.0625,20.31155 19.0625,28.75 0,2.18774 2.79e-4,4.37479 -2.5,6.25 -5.00056,1.56267 -5.624651,-3.74982 -8.75,-5.3125 -9.148154,-2.35044 -12.400478,9.33244 -3.75,12.5 4.688025,0.9376 6.562255,-4.06284 8.75,-0.9375 0.62507,4.06296 -4.06215,1.56219 -7.1875,4.375 -5.73387,5.81165 3.108552,13.88525 8.75,8.125 2.50028,-3.12535 1.249511,-8.12511 5.625,-7.1875 3.12535,2.81281 -3.437605,5.62455 -2.5,9.6875 2.535054,6.37536 12.230661,5.41782 12.1875,-1.875 -0.62507,-4.37549 -5.000314,-4.99969 -2.1875,-7.8125 4.06295,-1.56268 2.187151,5.31218 5.3125,8.125 7.0051,3.37931 13.9216,-4.27737 8.4375,-10.3125 -3.43788,-2.50028 -9.06254,0.62559 -8.75,-4.6875 l 0,-12.8125 c 2.50028,8.12591 11.24979,3.74909 13.125,11.875 0,0 0.31254,-3.74968 0,-6.5625 -0.9376,-13.12647 -12.49996,-9.06173 -12.8125,-15.9375 -0.31253,-1.87521 -0.3125,-4.375 -0.3125,-4.375 2.18774,6.56323 10.31219,2.49906 13.125,10.9375 0,0 0.31254,-4.68718 0,-7.5 -1.56267,-16.25182 -20.625,-5.62343 -20.625,-19.6875 0,-4.06295 0.937395,-10.65594 1.875,-13.46875 2.187744,2.50028 4.68725,3.78125 6.875,3.78125 6.87577,0 9.06254,-9.09309 8.75,-15.03125 0,-5.3131 -1.25,-14.6875 -1.25,-14.6875 0,-5.62563 5.93747,-6.56166 6.25,-14.0625 0.31254,-5.00056 -1.2499,-6.5619 -2.1875,-11.875 0.62507,7.18831 -7.50011,6.87395 -6.5625,16.25 0,0 -1.5625,-4.68732 -1.5625,-6.25 0,-9.06351 10.625,-9.6862 10.625,-21.25 0,-2.187745 -1.24982,-9.061871 -2.8125,-14.6875 -0.62507,7.188304 -15,14.061413 -15,23.75 0,10.93872 8.43746,32.81184 8.75,38.75 0,0 0.93757,4.37461 0.3125,7.8125 -0.62507,3.43788 -3.12472,6.875 -5.625,6.875 -3.12535,0.31253 -5.937535,-6.24968 -5.625,-9.0625 0.312535,-7.81337 0.937605,-14.99882 0,-25.625 -1.875209,-19.37717 -3.75,-20.31219 -3.75,-23.125 0,-3.75042 3.436556,-3.748497 11.875,-17.1875 5.62563,-9.376049 11.25,-20.936101 11.25,-33.4375 l 0,-8.125 c 0,-14.376608 -9.06131,-27.81215 -19.6875,-30.9375 0,0 -1.874685,-5.0000349 -4.6875,-4.6875 z m -20.625,9.0625 5,0.3125 c 0,0 -0.93722,2.812395 -3.4375,3.75 l -5,0 c 0,0 0.624685,-4.0625 3.4375,-4.0625 z m 24.6875,1.25 c 0.937605,3.75042 5.62483,4.374721 7.1875,6.875 0.31253,1.25014 0.625,3.437255 0.625,5.625 -0.9376,-4.062955 -4.68729,-3.437115 -6.5625,-6.875 -0.937605,-1.875209 -1.25,-3.437255 -1.25,-5.625 z m -1.5625,9.6875 c 0.62507,4.062955 5.31236,5.93715 6.5625,9.0625 0.62507,1.25014 0.31253,3.749721 0,6.25 -0.62507,-4.688024 -4.687326,-4.687045 -6.25,-8.75 -0.62507,-2.187744 -0.625035,-3.749685 -0.3125,-6.5625 z m 13.125,5.3125 c 0.62507,3.437885 4.99986,4.687185 6.25,7.5 0.31253,0.937605 0.31253,3.124755 0,5.3125 -0.62507,-4.062955 -4.06232,-3.749581 -5.625,-7.5 -0.9376,-1.562675 -0.93753,-3.124755 -0.625,-5.3125 z m -16.5625,3.75 c 0,5.000559 4.99986,6.874615 6.25,10.3125 0.312535,1.562673 7e-5,4.06222 -0.625,6.5625 0,-4.688024 -4.37486,-4.999442 -5.625,-10 -0.937605,-2.187744 -0.62507,-3.74965 0,-6.875 z m 14.375,6.25 c 0.31253,4.062955 4.9999,6.249651 5.9375,9.375 0.62507,1.25014 0.31254,3.74972 0,6.25 -0.31253,-4.688025 -4.68736,-4.687011 -5.9375,-9.0625 -0.62507,-2.187743 -0.62507,-3.749685 0,-6.5625 z m -20,1.25 c -0.62507,5.625632 5.312465,9.061976 5.625,13.75 0.312535,1.87521 -0.624895,5.312186 -1.5625,8.125 0.62507,-6.250699 -4.687395,-7.499336 -5.625,-13.4375 -0.62507,-3.12535 -1.75e-4,-4.999613 1.5625,-8.4375 z m 16.25,8.4375 c 0,4.37549 4.68739,6.562081 5.625,10.3125 0.62507,1.25014 -0.3125,4.062221 -0.3125,6.5625 -0.31253,-5.000559 -4.37482,-5.311975 -5.9375,-10 -0.62507,-2.500279 -0.3126,-4.062185 0.625,-6.875 z m -23.75,0.9375 c -1.25014,5.625629 4.999965,10.624405 5.3125,15.9375 0,2.187745 -1.562325,6.249685 -3.125,9.0625 1.25014,-6.563234 -4.6875,-8.436696 -4.6875,-15.625 -0.312535,-3.437885 0.312255,-5.624581 2.5,-9.375 z m -9.0625,9.6875 c -1.562675,5.938164 5,10.93687 5,16.5625 0,2.187745 -1.562291,5.93715 -3.4375,9.0625 1.562674,-6.875769 -4.374965,-9.061696 -4.6875,-16.25 0,-3.437885 0.937255,-5.937116 3.125,-9.375 z m 27.1875,0 c -0.312535,4.688025 4.9999,7.812045 5.9375,11.875 0,1.562675 -0.31239,4.68722 -1.25,7.1875 0,-5.313094 -4.68736,-6.249405 -5.9375,-11.5625 -0.62507,-2.812814 -1.4e-4,-4.37465 1.25,-7.5 z m -7.8125,8.75 c -0.937605,5.625629 4.99993,9.999406 5.625,15.3125 0.312535,1.87521 -1.24986,5.62465 -2.5,8.75 0.937605,-6.250699 -4.999965,-8.124231 -5.3125,-15 -0.312535,-3.12535 0.31229,-5.312081 2.1875,-9.0625 z m -8.75,11.25 c -1.25014,5.938164 5.312465,11.249441 5.625,16.25 0,2.187745 -1.249825,5.93715 -2.8125,9.0625 0.937605,-6.563235 -4.999965,-8.436696 -5.3125,-15.625 -0.312535,-3.437885 0.312255,-6.249616 2.5,-9.6875 z"
       transform="translate(-0.95,-0.95)"
       id="path3604"
       sodipodi:nodetypes="ccccccsccscccccccccccccccccccccccccccccccccccccsccccccsccscccsccccccccccccccccccssssscsccccccccccccccccccccscscccccsscscscccscccccccccccccccccccccccccccccccccscccccccccccccccccscccccccccccccccccc" />
    <g
       id="g3449">
      <path
         id="rect3273"
         d="M 141.15625,0 L 141.15625,245.78125 L 171.15625,238 L 171.15625,0 L 141.15625,0 z"
         style="fill:#000000;fill-opacity:1;fill-rule:evenodd;stroke:none;stroke-width:2.79999995;stroke-linecap:round;stroke-linejoin:miter;marker:none;marker-start:none;marker-mid:none;marker-end:none;stroke-miterlimit:4;stroke-dasharray:none;stroke-dashoffset:0;stroke-opacity:1;visibility:visible;display:inline;overflow:visible;enable-background:accumulate" />
      <path
         id="rect3318"
         d="M 191.84375,0 L 191.84375,232.65625 L 211.75,227.5 C 215.4128,226.62545 218.78245,225.23138 221.84375,223.5 L 221.84375,0 L 191.84375,0 z"
         style="fill:#000000;fill-opacity:1;fill-rule:evenodd;stroke:none;stroke-width:2.79999995;stroke-linecap:round;stroke-linejoin:miter;marker:none;marker-start:none;marker-mid:none;marker-end:none;stroke-miterlimit:4;stroke-dasharray:none;stroke-dashoffset:0;stroke-opacity:1;visibility:visible;display:inline;overflow:visible;enable-background:accumulate" />
    </g>
    <g
       id="g3506"
       transform="matrix(0,5.2089161,5.2089161,0,73.961043,75.712535)"
       style="opacity:0.50304877;fill:#0072bc;fill-opacity:1;stroke:#000000;stroke-width:0.08;stroke-miterlimit:4;stroke-opacity:1;stroke-dasharray:none" />
    <g
       id="g3514"
       transform="matrix(0,5.2089161,5.2089161,0,83.337093,65.398881)"
       style="opacity:0.50304877;fill:#0072bc;fill-opacity:1;stroke:#000000;stroke-width:0.08;stroke-miterlimit:4;stroke-opacity:1;stroke-dasharray:none" />
    <g
       id="g3522"
       transform="matrix(0,5.2089161,5.2089161,0,91.150467,53.835087)"
       style="opacity:0.50304877;fill:#0072bc;fill-opacity:1;stroke:#000000;stroke-width:0.08;stroke-miterlimit:4;stroke-opacity:1;stroke-dasharray:none" />
    <g
       id="g3530"
       transform="matrix(0,5.2089161,5.2089161,0,97.401166,42.896364)"
       style="opacity:0.50304877;fill:#0072bc;fill-opacity:1;stroke:#000000;stroke-width:0.08;stroke-miterlimit:4;stroke-opacity:1;stroke-dasharray:none" />
    <g
       id="g3538"
       transform="matrix(0,5.2089161,5.2089161,0,107.40228,58.835647)"
       style="opacity:0.50304877;fill:#0072bc;fill-opacity:1;stroke:#000000;stroke-width:0.08;stroke-miterlimit:4;stroke-opacity:1;stroke-dasharray:none" />
    <g
       id="g3546"
       transform="matrix(0,5.2089161,5.2089161,0,103.33933,20.706382)"
       style="opacity:0.50304877;fill:#0072bc;fill-opacity:1;stroke:#000000;stroke-width:0.08;stroke-miterlimit:4;stroke-opacity:1;stroke-dasharray:none" />
    <g
       id="g3554"
       transform="matrix(0,5.2089161,5.2089161,0,113.96552,36.33313)"
       style="opacity:0.50304877;fill:#0072bc;fill-opacity:1;stroke:#000000;stroke-width:0.08;stroke-miterlimit:4;stroke-opacity:1;stroke-dasharray:none" />
    <g
       id="g3562"
       transform="matrix(0,5.2089161,5.2089161,0,111.46524,48.209458)"
       style="opacity:0.50304877;fill:#0072bc;fill-opacity:1;stroke:#000000;stroke-width:0.08;stroke-miterlimit:4;stroke-opacity:1;stroke-dasharray:none" />
    <g
       id="g3570"
       transform="matrix(0,5.2089161,5.2089161,0,101.15159,32.58271)"
       style="opacity:0.50304877;fill:#0072bc;fill-opacity:1;stroke:#000000;stroke-width:0.08;stroke-miterlimit:4;stroke-opacity:1;stroke-dasharray:none" />
    <g
       id="g3578"
       transform="matrix(0,5.2089161,5.2089161,0,102.08919,71.024511)"
       style="opacity:0.50304877;fill:#0072bc;fill-opacity:1;stroke:#000000;stroke-width:0.08;stroke-miterlimit:4;stroke-opacity:1;stroke-dasharray:none" />
    <g
       id="g3586"
       transform="matrix(0,5.2089161,5.2089161,0,93.963282,83.213375)"
       style="opacity:0.50304877;fill:#0072bc;fill-opacity:1;stroke:#000000;stroke-width:0.08;stroke-miterlimit:4;stroke-opacity:1;stroke-dasharray:none" />
  </g>
</svg>